SolidWorks IGES file using analytic representation for surfaces         S      1
1H,,1H;,30HExtension Tubes-Barrels.SLDPRT,109HT:\Projects\#1582 website\G      1
PRNT_ for website\Assemblies\support files\pg 151 extension tubes barrelG      2
s\53231.igs,15HSolidWorks 2009,15HSolidWorks 2009,32,308,15,308,15,30HExG      3
tension Tubes-Barrels.SLDPRT,1.,2,2HMM,50,0.125,13H100129.104231,       G      4
1E-008,499990.,5HBillB,,11,0,13H100129.104231;                          G      5
     314       1       0       0       0                        00000200D      1
     314       0       6       1       0                               0D      2
     502       2       0       0       0                        00010000D      3
     502       0       0       6       1                               0D      4
     124       8       0       0       0                        00000000D      5
     124       0       0       4       0                               0D      6
     100      12       0       0       0               5        00010000D      7
     100       0       0       1       0                               0D      8
     124      13       0       0       0                        00000000D      9
     124       0       0       4       0                               0D     10
     100      17       0       0       0               9        00010000D     11
     100       0       0       1       0                               0D     12
     110      18       0       0       0                        01010000D     13
     110       0       0       1       0                               0D     14
     124      19       0       0       0                        00000000D     15
     124       0       0       4       0                               0D     16
     100      23       0       0       0              15        00010000D     17
     100       0       0       1       0                               0D     18
     124      24       0       0       0                        00000000D     19
     124       0       0       4       0                               0D     20
     100      28       0       0       0              19        00010000D     21
     100       0       0       1       0                               0D     22
     124      29       0       0       0                        00000000D     23
     124       0       0       3       0                               0D     24
     100      32       0       0       0              23        00010000D     25
     100       0       0       1       0                               0D     26
     124      33       0       0       0                        00000000D     27
     124       0       0       4       0                               0D     28
     100      37       0       0       0              27        00010000D     29
     100       0       0       1       0                               0D     30
     124      38       0       0       0                        00000000D     31
     124       0       0       3       0                               0D     32
     100      41       0       0       0              31        00010000D     33
     100       0       0       1       0                               0D     34
     110      42       0       0       0                        01010000D     35
     110       0       0       1       0                               0D     36
     124      43       0       0       0                        00000000D     37
     124       0       0       4       0                               0D     38
     100      47       0       0       0              37        00010000D     39
     100       0       0       1       0                               0D     40
     124      48       0       0       0                        00000000D     41
     124       0       0       3       0                               0D     42
     100      51       0       0       0              41        00010000D     43
     100       0       0       1       0                               0D     44
     110      52       0       0       0                        01010000D     45
     110       0       0       1       0                               0D     46
     110      53       0       0       0                        01010000D     47
     110       0       0       1       0                               0D     48
     124      54       0       0       0                        00000000D     49
     124       0       0       3       0                               0D     50
     100      57       0       0       0              49        00010000D     51
     100       0       0       1       0                               0D     52
     124      58       0       0       0                        00000000D     53
     124       0       0       4       0                               0D     54
     100      62       0       0       0              53        00010000D     55
     100       0       0       1       0                               0D     56
     110      63       0       0       0                        01010000D     57
     110       0       0       1       0                               0D     58
     110      64       0       0       0                        01010000D     59
     110       0       0       1       0                               0D     60
     110      65       0       0       0                        01010000D     61
     110       0       0       1       0                               0D     62
     124      66       0       0       0                        00000000D     63
     124       0       0       4       0                               0D     64
     100      70       0       0       0              63        00010000D     65
     100       0       0       1       0                               0D     66
     110      71       0       0       0                        01010000D     67
     110       0       0       1       0                               0D     68
     110      72       0       0       0                        01010000D     69
     110       0       0       1       0                               0D     70
     124      73       0       0       0                        00000000D     71
     124       0       0       4       0                               0D     72
     100      77       0       0       0              71        00010000D     73
     100       0       0       1       0                               0D     74
     124      78       0       0       0                        00000000D     75
     124       0       0       4       0                               0D     76
     100      82       0       0       0              75        00010000D     77
     100       0       0       1       0                               0D     78
     124      83       0       0       0                        00000000D     79
     124       0       0       4       0                               0D     80
     100      87       0       0       0              79        00010000D     81
     100       0       0       1       0                               0D     82
     124      88       0       0       0                        00000000D     83
     124       0       0       4       0                               0D     84
     100      92       0       0       0              83        00010000D     85
     100       0       0       1       0                               0D     86
     124      93       0       0       0                        00000000D     87
     124       0       0       4       0                               0D     88
     100      97       0       0       0              87        00010000D     89
     100       0       0       1       0                               0D     90
     110      98       0       0       0                        01010000D     91
     110       0       0       1       0                               0D     92
     124      99       0       0       0                        00000000D     93
     124       0       0       4       0                               0D     94
     100     103       0       0       0              93        00010000D     95
     100       0       0       1       0                               0D     96
     124     104       0       0       0                        00000000D     97
     124       0       0       4       0                               0D     98
     100     108       0       0       0              97        00010000D     99
     100       0       0       1       0                               0D    100
     124     109       0       0       0                        00000000D    101
     124       0       0       4       0                               0D    102
     100     113       0       0       0             101        00010000D    103
     100       0       0       1       0                               0D    104
     124     114       0       0       0                        00000000D    105
     124       0       0       4       0                               0D    106
     100     118       0       0       0             105        00010000D    107
     100       0       0       1       0                               0D    108
     110     119       0       0       0                        01010000D    109
     110       0       0       1       0                               0D    110
     124     120       0       0       0                        00000000D    111
     124       0       0       4       0                               0D    112
     100     124       0       0       0             111        00010000D    113
     100       0       0       1       0                               0D    114
     110     125       0       0       0                        01010000D    115
     110       0       0       1       0                               0D    116
     124     126       0       0       0                        00000000D    117
     124       0       0       4       0                               0D    118
     100     130       0       0       0             117        00010000D    119
     100       0       0       1       0                               0D    120
     124     131       0       0       0                        00000000D    121
     124       0       0       4       0                               0D    122
     100     135       0       0       0             121        00010000D    123
     100       0       0       1       0                               0D    124
     504     136       0       0       0                        00010000D    125
     504       0       0       8       1                               0D    126
     110     144       0       0       0                        01010000D    127
     110       0       0       1       0                               0D    128
     110     145       0       0       0                        01010000D    129
     110       0       0       1       0                               0D    130
     120     146       0       0       0                        01010000D    131
     120       0      -1       1       0                               0D    132
     508     147       0       0       0                        00010000D    133
     508       0       0       1       1                               0D    134
     510     148       0       0       0                        00010000D    135
     510       0      -1       1       1                               0D    136
     110     149       0       0       0                        01010000D    137
     110       0       0       1       0                               0D    138
     110     150       0       0       0                        01010000D    139
     110       0       0       1       0                               0D    140
     120     151       0       0       0                        01010000D    141
     120       0      -1       1       0                               0D    142
     508     152       0       0       0                        00010000D    143
     508       0       0       1       1                               0D    144
     510     153       0       0       0                        00010000D    145
     510       0      -1       1       1                               0D    146
     110     154       0       0       0                        01010000D    147
     110       0       0       1       0                               0D    148
     110     155       0       0       0                        01010000D    149
     110       0       0       1       0                               0D    150
     120     156       0       0       0                        01010000D    151
     120       0      -1       1       0                               0D    152
     508     157       0       0       0                        00010000D    153
     508       0       0       1       1                               0D    154
     510     158       0       0       0                        00010000D    155
     510       0      -1       1       1                               0D    156
     110     159       0       0       0                        01010000D    157
     110       0       0       1       0                               0D    158
     110     160       0       0       0                        01010000D    159
     110       0       0       1       0                               0D    160
     120     161       0       0       0                        01010000D    161
     120       0      -1       1       0                               0D    162
     508     162       0       0       0                        00010000D    163
     508       0       0       1       1                               0D    164
     510     163       0       0       0                        00010000D    165
     510       0      -1       1       1                               0D    166
     110     164       0       0       0                        01010000D    167
     110       0       0       1       0                               0D    168
     110     165       0       0       0                        01010000D    169
     110       0       0       1       0                               0D    170
     120     166       0       0       0                        01010000D    171
     120       0      -1       1       0                               0D    172
     508     167       0       0       0                        00010000D    173
     508       0       0       1       1                               0D    174
     510     168       0       0       0                        00010000D    175
     510       0      -1       1       1                               0D    176
     110     169       0       0       0                        01010000D    177
     110       0       0       1       0                               0D    178
     110     170       0       0       0                        01010000D    179
     110       0       0       1       0                               0D    180
     120     171       0       0       0                        01010000D    181
     120       0      -1       1       0                               0D    182
     508     172       0       0       0                        00010000D    183
     508       0       0       1       1                               0D    184
     510     173       0       0       0                        00010000D    185
     510       0      -1       1       1                               0D    186
     116     174       0       0       0                        00010000D    187
     116       0       0       1       0                               0D    188
     123     175       0       0       0                        00010200D    189
     123       0       0       1       0                               0D    190
     123     176       0       0       0                        00010200D    191
     123       0       0       1       0                               0D    192
     190     177       0       0       0                        00010000D    193
     190       0      -1       1       1                               0D    194
     508     178       0       0       0                        00010000D    195
     508       0       0       1       1                               0D    196
     508     179       0       0       0                        00010000D    197
     508       0       0       1       1                               0D    198
     510     180       0       0       0                        00010000D    199
     510       0      -1       1       1                               0D    200
     110     181       0       0       0                        01010000D    201
     110       0       0       1       0                               0D    202
     110     182       0       0       0                        01010000D    203
     110       0       0       1       0                               0D    204
     120     183       0       0       0                        01010000D    205
     120       0      -1       1       0                               0D    206
     508     184       0       0       0                        00010000D    207
     508       0       0       1       1                               0D    208
     510     185       0       0       0                        00010000D    209
     510       0      -1       1       1                               0D    210
     116     186       0       0       0                        00010000D    211
     116       0       0       1       0                               0D    212
     123     187       0       0       0                        00010200D    213
     123       0       0       1       0                               0D    214
     123     188       0       0       0                        00010200D    215
     123       0       0       1       0                               0D    216
     190     189       0       0       0                        00010000D    217
     190       0      -1       1       1                               0D    218
     508     190       0       0       0                        00010000D    219
     508       0       0       1       1                               0D    220
     508     191       0       0       0                        00010000D    221
     508       0       0       1       1                               0D    222
     510     192       0       0       0                        00010000D    223
     510       0      -1       1       1                               0D    224
     110     193       0       0       0                        01010000D    225
     110       0       0       1       0                               0D    226
     110     194       0       0       0                        01010000D    227
     110       0       0       1       0                               0D    228
     120     195       0       0       0                        01010000D    229
     120       0      -1       1       0                               0D    230
     508     196       0       0       0                        00010000D    231
     508       0       0       1       1                               0D    232
     510     197       0       0       0                        00010000D    233
     510       0      -1       1       1                               0D    234
     116     198       0       0       0                        00010000D    235
     116       0       0       1       0                               0D    236
     123     199       0       0       0                        00010200D    237
     123       0       0       1       0                               0D    238
     123     200       0       0       0                        00010200D    239
     123       0       0       1       0                               0D    240
     190     201       0       0       0                        00010000D    241
     190       0      -1       1       1                               0D    242
     508     202       0       0       0                        00010000D    243
     508       0       0       1       1                               0D    244
     508     203       0       0       0                        00010000D    245
     508       0       0       1       1                               0D    246
     510     204       0       0       0                        00010000D    247
     510       0      -1       1       1                               0D    248
     110     205       0       0       0                        01010000D    249
     110       0       0       1       0                               0D    250
     110     206       0       0       0                        01010000D    251
     110       0       0       1       0                               0D    252
     120     207       0       0       0                        01010000D    253
     120       0      -1       1       0                               0D    254
     508     208       0       0       0                        00010000D    255
     508       0       0       1       1                               0D    256
     510     209       0       0       0                        00010000D    257
     510       0      -1       1       1                               0D    258
     116     210       0       0       0                        00010000D    259
     116       0       0       1       0                               0D    260
     123     211       0       0       0                        00010200D    261
     123       0       0       1       0                               0D    262
     123     212       0       0       0                        00010200D    263
     123       0       0       1       0                               0D    264
     190     213       0       0       0                        00010000D    265
     190       0      -1       1       1                               0D    266
     508     214       0       0       0                        00010000D    267
     508       0       0       1       1                               0D    268
     508     215       0       0       0                        00010000D    269
     508       0       0       1       1                               0D    270
     510     216       0       0       0                        00010000D    271
     510       0      -1       1       1                               0D    272
     110     217       0       0       0                        01010000D    273
     110       0       0       1       0                               0D    274
     110     218       0       0       0                        01010000D    275
     110       0       0       1       0                               0D    276
     120     219       0       0       0                        01010000D    277
     120       0      -1       1       0                               0D    278
     508     220       0       0       0                        00010000D    279
     508       0       0       1       1                               0D    280
     510     221       0       0       0                        00010000D    281
     510       0      -1       1       1                               0D    282
     116     222       0       0       0                        00010000D    283
     116       0       0       1       0                               0D    284
     123     223       0       0       0                        00010200D    285
     123       0       0       1       0                               0D    286
     123     224       0       0       0                        00010200D    287
     123       0       0       1       0                               0D    288
     190     225       0       0       0                        00010000D    289
     190       0      -1       1       1                               0D    290
     508     226       0       0       0                        00010000D    291
     508       0       0       1       1                               0D    292
     508     227       0       0       0                        00010000D    293
     508       0       0       1       1                               0D    294
     510     228       0       0       0                        00010000D    295
     510       0      -1       1       1                               0D    296
     110     229       0       0       0                        01010000D    297
     110       0       0       1       0                               0D    298
     110     230       0       0       0                        01010000D    299
     110       0       0       1       0                               0D    300
     120     231       0       0       0                        01010000D    301
     120       0      -1       1       0                               0D    302
     508     232       0       0       0                        00010000D    303
     508       0       0       1       1                               0D    304
     510     233       0       0       0                        00010000D    305
     510       0      -1       1       1                               0D    306
     116     234       0       0       0                        00010000D    307
     116       0       0       1       0                               0D    308
     123     235       0       0       0                        00010200D    309
     123       0       0       1       0                               0D    310
     123     236       0       0       0                        00010200D    311
     123       0       0       1       0                               0D    312
     190     237       0       0       0                        00010000D    313
     190       0      -1       1       1                               0D    314
     508     238       0       0       0                        00010000D    315
     508       0       0       1       1                               0D    316
     508     239       0       0       0                        00010000D    317
     508       0       0       1       1                               0D    318
     510     240       0       0       0                        00010000D    319
     510       0      -1       1       1                               0D    320
     110     241       0       0       0                        01010000D    321
     110       0       0       1       0                               0D    322
     110     242       0       0       0                        01010000D    323
     110       0       0       1       0                               0D    324
     120     243       0       0       0                        01010000D    325
     120       0      -1       1       0                               0D    326
     508     244       0       0       0                        00010000D    327
     508       0       0       1       1                               0D    328
     510     245       0       0       0                        00010000D    329
     510       0      -1       1       1                               0D    330
     514     246       0       0       0                        00010000D    331
     514       0       0       2       1                               0D    332
     186     248       0       0       0                        00000000D    333
     186       0       0       1       0                               0D    334
314,100.,50.1960784313725,50.1960784313725,;                           1P      1
502,24,0.,-18.5,-23.45,0.,20.3,-20.,0.,21.,-17.,0.,-20.7,-16.1,        3P      2
0.,21.,-20.9,0.,-24.,0.,0.,-21.,-16.1,0.,-24.,-20.,0.,-20.7,0.,        3P      3
0.,20.7,0.,0.,-21.,-17.,0.,20.7,-16.1,0.,24.,-20.,0.,20.3,             3P      4
-20.9,0.,18.5,-17.,0.,-21.,-20.9,0.,-18.5,-17.,0.,-21.,-23.45,         3P      5
0.,18.5,-23.45,0.,-20.3,-20.9,0.,21.,-16.1,0.,24.,0.,0.,-20.3,         3P      6
-20.,0.,21.,-23.45;                                                    3P      7
124,1.60814287233914E-016,-1.,6.98296672221876E-015,                   5P      8
1.4210854715202E-013,-1.,-1.60814287233911E-016,                       5P      9
3.41817433690011E-016,9.28556138144498E-015,                           5P     10
-3.4181743369001E-016,-6.98296672221876E-015,-1.,-40.;                 5P     11
100,-20.,0.,0.,20.3,0.,-20.3,0.;                                       7P     12
124,1.60814287233913E-016,-1.,6.98296672221876E-015,                   9P     13
1.14397380457376E-013,-1.,-1.60814287233912E-016,                      9P     14
3.30423519233678E-016,7.29143488931624E-015,                           9P     15
-3.30423519233676E-016,-6.98296672221876E-015,-1.,-32.2;               9P     16
100,-16.1,0.,0.,21.,0.,-21.,0.;                                       11P     17
110,0.,20.3,-20.,0.,20.3,-20.9;                                       13P     18
124,1.39047031267464E-014,1.,-6.98296672221876E-015,                  15P     19
-1.14397380457376E-013,1.,-1.39047031267464E-014,                     15P     20
3.30423519233677E-016,7.29143488931626E-015,                          15P     21
3.30423519233579E-016,-6.98296672221877E-015,-1.,-32.2;               15P     22
100,-16.1,0.,0.,21.,0.,-21.,0.;                                       17P     23
124,1.39047031267464E-014,1.,-6.98296672221876E-015,                  19P     24
-1.66622271535744E-013,1.,-1.39047031267464E-014,                     19P     25
3.30423519233677E-016,1.06201334257432E-014,                          19P     26
3.30423519233579E-016,-6.98296672221877E-015,-1.,-46.9;               19P     27
100,-23.45,0.,0.,21.,0.,-21.,0.;                                      21P     28
124,1.39047031267464E-014,1.,-6.98296672221876E-015,0.,1.,            23P     29
-1.39047031267464E-014,2.44921270764475E-016,0.,                      23P     30
2.44921270764378E-016,-6.98296672221877E-015,-1.,0.;                  23P     31
100,0.,0.,0.,20.7,0.,-20.7,0.;                                        25P     32
124,1.39047031267464E-014,1.,-6.98296672221876E-015,                  27P     33
-1.4210854715202E-013,1.,-1.39047031267464E-014,                      27P     34
2.89120579329467E-016,8.23162429423413E-015,                          27P     35
2.8912057932937E-016,-6.98296672221877E-015,-1.,-40.;                 27P     36
100,-20.,0.,0.,24.,0.,-24.,0.;                                        29P     37
124,1.60814287233913E-016,-1.,6.98296672221876E-015,0.,-1.,           31P     38
-1.60814287233912E-016,2.44921270764475E-016,0.,                      31P     39
-2.44921270764474E-016,-6.98296672221876E-015,-1.,0.;                 31P     40
100,0.,0.,0.,24.,0.,-24.,0.;                                          33P     41
110,0.,20.7,0.,0.,20.7,-16.1;                                         35P     42
124,1.39047031267464E-014,1.,-6.98296672221876E-015,                  37P     43
-1.4210854715202E-013,1.,-1.39047031267464E-014,                      37P     44
3.4181743369001E-016,9.285561381445E-015,3.41817433689913E-016,       37P     45
-6.98296672221877E-015,-1.,-40.;                                      37P     46
100,-20.,0.,0.,20.3,0.,-20.3,0.;                                      39P     47
124,1.60814287233913E-016,-1.,6.98296672221876E-015,0.,-1.,           41P     48
-1.60814287233912E-016,2.44921270764475E-016,0.,                      41P     49
-2.44921270764474E-016,-6.98296672221876E-015,-1.,0.;                 41P     50
100,0.,0.,0.,20.7,0.,-20.7,0.;                                        43P     51
110,0.,-21.,-16.1,0.,-21.,-17.;                                       45P     52
110,0.,-18.5,-17.,0.,-18.5,-23.45;                                    47P     53
124,1.39047031267464E-014,1.,-6.98296672221876E-015,0.,1.,            49P     54
-1.39047031267464E-014,2.44921270764475E-016,0.,                      49P     55
2.44921270764377E-016,-6.98296672221877E-015,-1.,0.;                  49P     56
100,0.,0.,0.,24.,0.,-24.,0.;                                          51P     57
124,1.39047031267464E-014,1.,-6.98296672221876E-015,                  53P     58
-1.20792265079217E-013,1.,-1.39047031267464E-014,                     53P     59
3.30423519233677E-016,7.69903062847058E-015,                          53P     60
3.30423519233579E-016,-6.98296672221877E-015,-1.,-34.;                53P     61
100,-17.,0.,0.,21.,0.,-21.,0.;                                        55P     62
110,0.,21.,-20.9,0.,21.,-23.45;                                       57P     63
110,0.,-21.,-20.9,0.,-21.,-23.45;                                     59P     64
110,0.,-20.3,-20.,0.,-20.3,-20.9;                                     61P     65
124,1.39047031267464E-014,1.,-6.98296672221876E-015,                  63P     66
-1.14397380457376E-013,1.,-1.39047031267464E-014,                     63P     67
3.35212265889237E-016,7.36853371047078E-015,                          63P     68
3.3521226588914E-016,-6.98296672221877E-015,-1.,-32.2;                63P     69
100,-16.1,0.,0.,20.7,0.,-20.7,0.;                                     65P     70
110,0.,24.,0.,0.,24.,-20.;                                            67P     71
110,0.,21.,-16.1,0.,21.,-17.;                                         69P     72
124,1.60814287233913E-016,-1.,6.98296672221876E-015,                  71P     73
1.4210854715202E-013,-1.,-1.60814287233912E-016,                      71P     74
2.89120579329468E-016,8.23162429423412E-015,                          71P     75
-2.89120579329467E-016,-6.98296672221876E-015,-1.,-40.;               71P     76
100,-20.,0.,0.,24.,0.,-24.,0.;                                        73P     77
124,1.60814287233914E-016,-1.,6.98296672221876E-015,                  75P     78
1.48503431773861E-013,-1.,-1.60814287233911E-016,                     75P     79
3.41817433690011E-016,9.70341164361001E-015,                          75P     80
-3.4181743369001E-016,-6.98296672221876E-015,-1.,-41.8;               75P     81
100,-20.9,0.,0.,20.3,0.,-20.3,0.;                                     77P     82
124,1.60814287233913E-016,-1.,6.98296672221876E-015,                  79P     83
1.48503431773861E-013,-1.,-1.60814287233912E-016,                     79P     84
3.30423519233678E-016,9.46527883147264E-015,                          79P     85
-3.30423519233676E-016,-6.98296672221876E-015,-1.,-41.8;              79P     86
100,-20.9,0.,0.,21.,0.,-21.,0.;                                       81P     87
124,1.60814287233914E-016,-1.,6.98296672221876E-015,                  83P     88
1.66622271535744E-013,-1.,-1.60814287233911E-016,                     83P     89
3.75075346157147E-016,1.16672187670986E-014,                          83P     90
-3.75075346157146E-016,-6.98296672221876E-015,-1.,-46.9;              83P     91
100,-23.45,0.,0.,18.5,0.,-18.5,0.;                                    85P     92
124,1.60814287233913E-016,-1.,6.98296672221876E-015,                  87P     93
1.20792265079217E-013,-1.,-1.60814287233912E-016,                     87P     94
3.30423519233678E-016,7.69903062847057E-015,                          87P     95
-3.30423519233676E-016,-6.98296672221876E-015,-1.,-34.;               87P     96
100,-17.,0.,0.,21.,0.,-21.,0.;                                        89P     97
110,0.,18.5,-17.,0.,18.5,-23.45;                                      91P     98
124,1.39047031267464E-014,1.,-6.98296672221876E-015,                  93P     99
-1.48503431773861E-013,1.,-1.39047031267464E-014,                     93P    100
3.4181743369001E-016,9.70341164361003E-015,                           93P    101
3.41817433689913E-016,-6.98296672221877E-015,-1.,-41.8;               93P    102
100,-20.9,0.,0.,20.3,0.,-20.3,0.;                                     95P    103
124,1.60814287233913E-016,-1.,6.98296672221876E-015,                  97P    104
1.66622271535744E-013,-1.,-1.60814287233912E-016,                     97P    105
3.30423519233678E-016,1.06201334257432E-014,                          97P    106
-3.30423519233676E-016,-6.98296672221876E-015,-1.,-46.9;              97P    107
100,-23.45,0.,0.,21.,0.,-21.,0.;                                      99P    108
124,1.60814287233914E-016,-1.,6.98296672221876E-015,                 101P    109
1.20792265079217E-013,-1.,-1.60814287233911E-016,                    101P    110
3.75075346157147E-016,8.45811168616955E-015,                         101P    111
-3.75075346157146E-016,-6.98296672221876E-015,-1.,-34.;              101P    112
100,-17.,0.,0.,18.5,0.,-18.5,0.;                                     103P    113
124,1.39047031267464E-014,1.,-6.98296672221876E-015,                 105P    114
-1.48503431773861E-013,1.,-1.39047031267464E-014,                    105P    115
3.30423519233677E-016,9.46527883147266E-015,                         105P    116
3.30423519233579E-016,-6.98296672221877E-015,-1.,-41.8;              105P    117
100,-20.9,0.,0.,21.,0.,-21.,0.;                                      107P    118
110,0.,-20.7,0.,0.,-20.7,-16.1;                                      109P    119
124,1.39047031267464E-014,1.,-6.98296672221876E-015,                 111P    120
-1.66622271535744E-013,1.,-1.39047031267464E-014,                    111P    121
3.75075346157147E-016,1.16672187670986E-014,                         111P    122
3.7507534615705E-016,-6.98296672221877E-015,-1.,-46.9;               111P    123
100,-23.45,0.,0.,18.5,0.,-18.5,0.;                                   113P    124
110,0.,-24.,0.,0.,-24.,-20.;                                         115P    125
124,1.39047031267464E-014,1.,-6.98296672221876E-015,                 117P    126
-1.20792265079217E-013,1.,-1.39047031267464E-014,                    117P    127
3.75075346157147E-016,8.45811168616957E-015,                         117P    128
3.7507534615705E-016,-6.98296672221877E-015,-1.,-34.;                117P    129
100,-17.,0.,0.,18.5,0.,-18.5,0.;                                     119P    130
124,1.60814287233913E-016,-1.,6.98296672221876E-015,                 121P    131
1.14397380457376E-013,-1.,-1.60814287233912E-016,                    121P    132
3.35212265889238E-016,7.36853371047076E-015,                         121P    133
-3.35212265889237E-016,-6.98296672221876E-015,-1.,-32.2;             121P    134
100,-16.1,0.,0.,20.7,0.,-20.7,0.;                                    123P    135
504,36,7,3,23,3,2,11,3,7,3,21,13,3,2,3,14,17,3,21,3,7,21,3,24,       125P    136
3,18,25,3,10,3,9,29,3,13,3,8,33,3,6,3,22,35,3,10,3,12,39,3,2,3,      125P    137
23,43,3,9,3,10,45,3,7,3,11,47,3,17,3,1,51,3,22,3,6,55,3,3,3,11,      125P    138
57,3,5,3,24,59,3,16,3,18,61,3,23,3,20,65,3,12,3,4,67,3,22,3,13,      125P    139
69,3,21,3,3,73,3,8,3,13,77,3,20,3,14,81,3,16,3,5,85,3,1,3,19,        125P    140
89,3,11,3,3,91,3,15,3,19,95,3,14,3,20,99,3,18,3,24,103,3,17,3,       125P    141
15,107,3,5,3,16,109,3,9,3,4,113,3,19,3,1,115,3,6,3,8,119,3,15,       125P    142
3,17,123,3,4,3,12;                                                   125P    143
110,0.,0.,0.,0.,0.,-1000.;                                           127P    144
110,0.,24.,-20.,0.,24.,0.;                                           129P    145
120,127,129,0.,6.28318530717959;                                     131P    146
508,4,0,125,14,1,0,0,125,34,1,0,0,125,7,0,0,0,125,20,0,0;            133P    147
510,131,1,1,133;                                                     135P    148
110,0.,0.,0.,0.,0.,-1000.;                                           137P    149
110,0.,20.3,-20.9,0.,20.3,-20.;                                      139P    150
120,137,139,0.,6.28318530717959;                                     141P    151
508,4,0,125,10,1,0,0,125,18,1,0,0,125,28,0,0,0,125,3,0,0;            143P    152
510,141,1,1,143;                                                     145P    153
110,0.,0.,0.,0.,0.,-1000.;                                           147P    154
110,0.,21.,-23.45,0.,21.,-20.9;                                      149P    155
120,147,149,0.,6.28318530717959;                                     151P    156
508,4,0,125,31,1,0,0,125,17,1,0,0,125,5,0,0,0,125,16,0,0;            153P    157
510,151,1,1,153;                                                     155P    158
110,0.,0.,0.,0.,0.,-1000.;                                           157P    159
110,0.,18.5,-17.,0.,18.5,-23.45;                                     159P    160
120,157,159,0.,6.28318530717959;                                     161P    161
508,4,0,125,30,0,0,0,125,13,1,0,0,125,25,1,0,0,125,27,0,0;           163P    162
510,161,1,1,163;                                                     165P    163
110,0.,0.,0.,0.,0.,-1000.;                                           167P    164
110,0.,21.,-16.1,0.,21.,-17.;                                        169P    165
120,167,169,0.,6.28318530717959;                                     171P    166
508,4,0,125,2,0,0,0,125,12,1,0,0,125,26,1,0,0,125,21,0,0;            173P    167
510,171,1,1,173;                                                     175P    168
110,0.,0.,0.,0.,0.,-1000.;                                           177P    169
110,0.,20.7,0.,0.,20.7,-16.1;                                        179P    170
120,177,179,0.,6.28318530717959;                                     181P    171
508,4,0,125,11,0,0,0,125,32,1,0,0,125,36,1,0,0,125,9,0,0;            183P    172
510,181,1,1,183;                                                     185P    173
116,0.,24.,0.,;                                                      187P    174
123,0.,0.,1.;                                                        189P    175
123,0.707106781,-0.707106781,0.;                                     191P    176
190,187,189,191;                                                     193P    177
508,2,0,125,14,0,0,0,125,8,0,0;                                      195P    178
508,2,0,125,6,1,0,0,125,11,1,0;                                      197P    179
510,193,2,1,195,197;                                                 199P    180
110,0.,0.,0.,0.,0.,-1000.;                                           201P    181
110,0.,20.7,0.,0.,20.7,-16.1;                                        203P    182
120,201,203,0.,6.28318530717959;                                     205P    183
508,4,0,125,32,0,0,0,125,6,0,0,0,125,9,1,0,0,125,19,1,0;             207P    184
510,205,1,1,207;                                                     209P    185
116,0.,20.7,-16.1,;                                                  211P    186
123,0.,0.,-1.;                                                       213P    187
123,-0.707106781,0.707106781,0.;                                     215P    188
190,211,213,215;                                                     217P    189
508,2,0,125,4,1,0,0,125,2,1,0;                                       219P    190
508,2,0,125,19,0,0,0,125,36,0,0;                                     221P    191
510,217,2,1,219,221;                                                 223P    192
110,0.,0.,0.,0.,0.,-1000.;                                           225P    193
110,0.,21.,-16.1,0.,21.,-17.;                                        227P    194
120,225,227,0.,6.28318530717959;                                     229P    195
508,4,0,125,12,0,0,0,125,4,0,0,0,125,21,1,0,0,125,15,1,0;            231P    196
510,229,1,1,231;                                                     233P    197
116,0.,21.,-17.,;                                                    235P    198
123,0.,0.,1.;                                                        237P    199
123,0.707106781,-0.707106781,0.;                                     239P    200
190,235,237,239;                                                     241P    201
508,2,0,125,15,0,0,0,125,26,0,0;                                     243P    202
508,2,0,125,35,1,0,0,125,30,1,0;                                     245P    203
510,241,2,1,243,245;                                                 247P    204
110,0.,0.,0.,0.,0.,-1000.;                                           249P    205
110,0.,18.5,-17.,0.,18.5,-23.45;                                     251P    206
120,249,251,0.,6.28318530717959;                                     253P    207
508,4,0,125,13,0,0,0,125,35,0,0,0,125,27,1,0,0,125,33,1,0;           255P    208
510,253,1,1,255;                                                     257P    209
116,0.,18.5,-23.45,;                                                 259P    210
123,0.,0.,-1.;                                                       261P    211
123,-0.707106781,0.707106781,0.;                                     263P    212
190,259,261,263;                                                     265P    213
508,2,0,125,5,1,0,0,125,29,1,0;                                      267P    214
508,2,0,125,33,0,0,0,125,25,0,0;                                     269P    215
510,265,2,1,267,269;                                                 271P    216
110,0.,0.,0.,0.,0.,-1000.;                                           273P    217
110,0.,21.,-23.45,0.,21.,-20.9;                                      275P    218
120,273,275,0.,6.28318530717959;                                     277P    219
508,4,0,125,17,0,0,0,125,24,1,0,0,125,16,1,0,0,125,29,0,0;           279P    220
510,277,1,1,279;                                                     281P    221
116,0.,21.,-20.9,;                                                   283P    222
123,0.,0.,1.;                                                        285P    223
123,0.707106781,-0.707106781,0.;                                     287P    224
190,283,285,287;                                                     289P    225
508,2,0,125,31,0,0,0,125,24,0,0;                                     291P    226
508,2,0,125,28,1,0,0,125,23,1,0;                                     293P    227
510,289,2,1,291,293;                                                 295P    228
110,0.,0.,0.,0.,0.,-1000.;                                           297P    229
110,0.,20.3,-20.9,0.,20.3,-20.;                                      299P    230
120,297,299,0.,6.28318530717959;                                     301P    231
508,4,0,125,18,0,0,0,125,1,1,0,0,125,3,1,0,0,125,23,0,0;             303P    232
510,301,1,1,303;                                                     305P    233
116,0.,20.3,-20.,;                                                   307P    234
123,0.,0.,-1.;                                                       309P    235
123,-0.707106781,0.707106781,0.;                                     311P    236
190,307,309,311;                                                     313P    237
508,2,0,125,7,1,0,0,125,22,1,0;                                      315P    238
508,2,0,125,10,0,0,0,125,1,0,0;                                      317P    239
510,313,2,1,315,317;                                                 319P    240
110,0.,0.,0.,0.,0.,-1000.;                                           321P    241
110,0.,24.,-20.,0.,24.,0.;                                           323P    242
120,321,323,0.,6.28318530717959;                                     325P    243
508,4,0,125,34,0,0,0,125,8,1,0,0,125,20,1,0,0,125,22,0,0;            327P    244
510,325,1,1,327;                                                     329P    245
514,18,135,1,145,1,155,1,165,1,175,1,185,1,199,1,209,1,223,1,        331P    246
233,1,247,1,257,1,271,1,281,1,295,1,305,1,319,1,329,1;               331P    247
186,331,1,0;                                                         333P    248
S      1G      5D    334P    248                                        T      1
