SolidWorks IGES file using analytic representation for surfaces         S      1
1H,,1H;,30HExtension Tubes-Barrels.SLDPRT,109HT:\Projects\#1582 website\G      1
PRNT_ for website\Assemblies\support files\pg 151 extension tubes barrelG      2
s\58735.igs,15HSolidWorks 2009,15HSolidWorks 2009,32,308,15,308,15,30HExG      3
tension Tubes-Barrels.SLDPRT,1.,2,2HMM,50,0.125,13H100129.104257,       G      4
1E-008,499990.,5HBillB,,11,0,13H100129.104257;                          G      5
     314       1       0       0       0                        00000200D      1
     314       0       6       1       0                               0D      2
     502       2       0       0       0                        00010000D      3
     502       0       0       6       1                               0D      4
     110       8       0       0       0                        01010000D      5
     110       0       0       1       0                               0D      6
     124       9       0       0       0                        00000000D      7
     124       0       0       4       0                               0D      8
     100      13       0       0       0               7        00010000D      9
     100       0       0       1       0                               0D     10
     124      14       0       0       0                        00000000D     11
     124       0       0       4       0                               0D     12
     100      18       0       0       0              11        00010000D     13
     100       0       0       1       0                               0D     14
     110      19       0       0       0                        01010000D     15
     110       0       0       1       0                               0D     16
     110      20       0       0       0                        01010000D     17
     110       0       0       1       0                               0D     18
     124      21       0       0       0                        00000000D     19
     124       0       0       4       0                               0D     20
     100      25       0       0       0              19        00010000D     21
     100       0       0       1       0                               0D     22
     124      26       0       0       0                        00000000D     23
     124       0       0       3       0                               0D     24
     100      29       0       0       0              23        00010000D     25
     100       0       0       1       0                               0D     26
     110      30       0       0       0                        01010000D     27
     110       0       0       1       0                               0D     28
     124      31       0       0       0                        00000000D     29
     124       0       0       4       0                               0D     30
     100      35       0       0       0              29        00010000D     31
     100       0       0       1       0                               0D     32
     124      36       0       0       0                        00000000D     33
     124       0       0       4       0                               0D     34
     100      40       0       0       0              33        00010000D     35
     100       0       0       1       0                               0D     36
     124      41       0       0       0                        00000000D     37
     124       0       0       4       0                               0D     38
     100      45       0       0       0              37        00010000D     39
     100       0       0       1       0                               0D     40
     110      46       0       0       0                        01010000D     41
     110       0       0       1       0                               0D     42
     124      47       0       0       0                        00000000D     43
     124       0       0       4       0                               0D     44
     100      51       0       0       0              43        00010000D     45
     100       0       0       1       0                               0D     46
     124      52       0       0       0                        00000000D     47
     124       0       0       4       0                               0D     48
     100      56       0       0       0              47        00010000D     49
     100       0       0       1       0                               0D     50
     124      57       0       0       0                        00000000D     51
     124       0       0       4       0                               0D     52
     100      61       0       0       0              51        00010000D     53
     100       0       0       1       0                               0D     54
     124      62       0       0       0                        00000000D     55
     124       0       0       4       0                               0D     56
     100      66       0       0       0              55        00010000D     57
     100       0       0       1       0                               0D     58
     124      67       0       0       0                        00000000D     59
     124       0       0       4       0                               0D     60
     100      71       0       0       0              59        00010000D     61
     100       0       0       1       0                               0D     62
     124      72       0       0       0                        00000000D     63
     124       0       0       3       0                               0D     64
     100      75       0       0       0              63        00010000D     65
     100       0       0       1       0                               0D     66
     124      76       0       0       0                        00000000D     67
     124       0       0       3       0                               0D     68
     100      79       0       0       0              67        00010000D     69
     100       0       0       1       0                               0D     70
     124      80       0       0       0                        00000000D     71
     124       0       0       3       0                               0D     72
     100      83       0       0       0              71        00010000D     73
     100       0       0       1       0                               0D     74
     124      84       0       0       0                        00000000D     75
     124       0       0       4       0                               0D     76
     100      88       0       0       0              75        00010000D     77
     100       0       0       1       0                               0D     78
     110      89       0       0       0                        01010000D     79
     110       0       0       1       0                               0D     80
     110      90       0       0       0                        01010000D     81
     110       0       0       1       0                               0D     82
     110      91       0       0       0                        01010000D     83
     110       0       0       1       0                               0D     84
     124      92       0       0       0                        00000000D     85
     124       0       0       4       0                               0D     86
     100      96       0       0       0              85        00010000D     87
     100       0       0       1       0                               0D     88
     110      97       0       0       0                        01010000D     89
     110       0       0       1       0                               0D     90
     124      98       0       0       0                        00000000D     91
     124       0       0       4       0                               0D     92
     100     102       0       0       0              91        00010000D     93
     100       0       0       1       0                               0D     94
     110     103       0       0       0                        01010000D     95
     110       0       0       1       0                               0D     96
     124     104       0       0       0                        00000000D     97
     124       0       0       4       0                               0D     98
     100     108       0       0       0              97        00010000D     99
     100       0       0       1       0                               0D    100
     124     109       0       0       0                        00000000D    101
     124       0       0       4       0                               0D    102
     100     113       0       0       0             101        00010000D    103
     100       0       0       1       0                               0D    104
     110     114       0       0       0                        01010000D    105
     110       0       0       1       0                               0D    106
     124     115       0       0       0                        00000000D    107
     124       0       0       4       0                               0D    108
     100     119       0       0       0             107        00010000D    109
     100       0       0       1       0                               0D    110
     124     120       0       0       0                        00000000D    111
     124       0       0       4       0                               0D    112
     100     124       0       0       0             111        00010000D    113
     100       0       0       1       0                               0D    114
     124     125       0       0       0                        00000000D    115
     124       0       0       4       0                               0D    116
     100     129       0       0       0             115        00010000D    117
     100       0       0       1       0                               0D    118
     124     130       0       0       0                        00000000D    119
     124       0       0       4       0                               0D    120
     100     134       0       0       0             119        00010000D    121
     100       0       0       1       0                               0D    122
     110     135       0       0       0                        01010000D    123
     110       0       0       1       0                               0D    124
     504     136       0       0       0                        00010000D    125
     504       0       0       8       1                               0D    126
     110     144       0       0       0                        01010000D    127
     110       0       0       1       0                               0D    128
     110     145       0       0       0                        01010000D    129
     110       0       0       1       0                               0D    130
     120     146       0       0       0                        01010000D    131
     120       0      -1       1       0                               0D    132
     508     147       0       0       0                        00010000D    133
     508       0       0       1       1                               0D    134
     510     148       0       0       0                        00010000D    135
     510       0      -1       1       1                               0D    136
     110     149       0       0       0                        01010000D    137
     110       0       0       1       0                               0D    138
     110     150       0       0       0                        01010000D    139
     110       0       0       1       0                               0D    140
     120     151       0       0       0                        01010000D    141
     120       0      -1       1       0                               0D    142
     508     152       0       0       0                        00010000D    143
     508       0       0       1       1                               0D    144
     510     153       0       0       0                        00010000D    145
     510       0      -1       1       1                               0D    146
     110     154       0       0       0                        01010000D    147
     110       0       0       1       0                               0D    148
     110     155       0       0       0                        01010000D    149
     110       0       0       1       0                               0D    150
     120     156       0       0       0                        01010000D    151
     120       0      -1       1       0                               0D    152
     508     157       0       0       0                        00010000D    153
     508       0       0       1       1                               0D    154
     510     158       0       0       0                        00010000D    155
     510       0      -1       1       1                               0D    156
     110     159       0       0       0                        01010000D    157
     110       0       0       1       0                               0D    158
     110     160       0       0       0                        01010000D    159
     110       0       0       1       0                               0D    160
     120     161       0       0       0                        01010000D    161
     120       0      -1       1       0                               0D    162
     508     162       0       0       0                        00010000D    163
     508       0       0       1       1                               0D    164
     510     163       0       0       0                        00010000D    165
     510       0      -1       1       1                               0D    166
     110     164       0       0       0                        01010000D    167
     110       0       0       1       0                               0D    168
     110     165       0       0       0                        01010000D    169
     110       0       0       1       0                               0D    170
     120     166       0       0       0                        01010000D    171
     120       0      -1       1       0                               0D    172
     508     167       0       0       0                        00010000D    173
     508       0       0       1       1                               0D    174
     510     168       0       0       0                        00010000D    175
     510       0      -1       1       1                               0D    176
     110     169       0       0       0                        01010000D    177
     110       0       0       1       0                               0D    178
     110     170       0       0       0                        01010000D    179
     110       0       0       1       0                               0D    180
     120     171       0       0       0                        01010000D    181
     120       0      -1       1       0                               0D    182
     508     172       0       0       0                        00010000D    183
     508       0       0       1       1                               0D    184
     510     173       0       0       0                        00010000D    185
     510       0      -1       1       1                               0D    186
     116     174       0       0       0                        00010000D    187
     116       0       0       1       0                               0D    188
     123     175       0       0       0                        00010200D    189
     123       0       0       1       0                               0D    190
     123     176       0       0       0                        00010200D    191
     123       0       0       1       0                               0D    192
     190     177       0       0       0                        00010000D    193
     190       0      -1       1       1                               0D    194
     508     178       0       0       0                        00010000D    195
     508       0       0       1       1                               0D    196
     508     179       0       0       0                        00010000D    197
     508       0       0       1       1                               0D    198
     510     180       0       0       0                        00010000D    199
     510       0      -1       1       1                               0D    200
     110     181       0       0       0                        01010000D    201
     110       0       0       1       0                               0D    202
     110     182       0       0       0                        01010000D    203
     110       0       0       1       0                               0D    204
     120     183       0       0       0                        01010000D    205
     120       0      -1       1       0                               0D    206
     508     184       0       0       0                        00010000D    207
     508       0       0       1       1                               0D    208
     510     185       0       0       0                        00010000D    209
     510       0      -1       1       1                               0D    210
     116     186       0       0       0                        00010000D    211
     116       0       0       1       0                               0D    212
     123     187       0       0       0                        00010200D    213
     123       0       0       1       0                               0D    214
     123     188       0       0       0                        00010200D    215
     123       0       0       1       0                               0D    216
     190     189       0       0       0                        00010000D    217
     190       0      -1       1       1                               0D    218
     508     190       0       0       0                        00010000D    219
     508       0       0       1       1                               0D    220
     508     191       0       0       0                        00010000D    221
     508       0       0       1       1                               0D    222
     510     192       0       0       0                        00010000D    223
     510       0      -1       1       1                               0D    224
     110     193       0       0       0                        01010000D    225
     110       0       0       1       0                               0D    226
     110     194       0       0       0                        01010000D    227
     110       0       0       1       0                               0D    228
     120     195       0       0       0                        01010000D    229
     120       0      -1       1       0                               0D    230
     508     196       0       0       0                        00010000D    231
     508       0       0       1       1                               0D    232
     510     197       0       0       0                        00010000D    233
     510       0      -1       1       1                               0D    234
     116     198       0       0       0                        00010000D    235
     116       0       0       1       0                               0D    236
     123     199       0       0       0                        00010200D    237
     123       0       0       1       0                               0D    238
     123     200       0       0       0                        00010200D    239
     123       0       0       1       0                               0D    240
     190     201       0       0       0                        00010000D    241
     190       0      -1       1       1                               0D    242
     508     202       0       0       0                        00010000D    243
     508       0       0       1       1                               0D    244
     508     203       0       0       0                        00010000D    245
     508       0       0       1       1                               0D    246
     510     204       0       0       0                        00010000D    247
     510       0      -1       1       1                               0D    248
     110     205       0       0       0                        01010000D    249
     110       0       0       1       0                               0D    250
     110     206       0       0       0                        01010000D    251
     110       0       0       1       0                               0D    252
     120     207       0       0       0                        01010000D    253
     120       0      -1       1       0                               0D    254
     508     208       0       0       0                        00010000D    255
     508       0       0       1       1                               0D    256
     510     209       0       0       0                        00010000D    257
     510       0      -1       1       1                               0D    258
     116     210       0       0       0                        00010000D    259
     116       0       0       1       0                               0D    260
     123     211       0       0       0                        00010200D    261
     123       0       0       1       0                               0D    262
     123     212       0       0       0                        00010200D    263
     123       0       0       1       0                               0D    264
     190     213       0       0       0                        00010000D    265
     190       0      -1       1       1                               0D    266
     508     214       0       0       0                        00010000D    267
     508       0       0       1       1                               0D    268
     508     215       0       0       0                        00010000D    269
     508       0       0       1       1                               0D    270
     510     216       0       0       0                        00010000D    271
     510       0      -1       1       1                               0D    272
     110     217       0       0       0                        01010000D    273
     110       0       0       1       0                               0D    274
     110     218       0       0       0                        01010000D    275
     110       0       0       1       0                               0D    276
     120     219       0       0       0                        01010000D    277
     120       0      -1       1       0                               0D    278
     508     220       0       0       0                        00010000D    279
     508       0       0       1       1                               0D    280
     510     221       0       0       0                        00010000D    281
     510       0      -1       1       1                               0D    282
     116     222       0       0       0                        00010000D    283
     116       0       0       1       0                               0D    284
     123     223       0       0       0                        00010200D    285
     123       0       0       1       0                               0D    286
     123     224       0       0       0                        00010200D    287
     123       0       0       1       0                               0D    288
     190     225       0       0       0                        00010000D    289
     190       0      -1       1       1                               0D    290
     508     226       0       0       0                        00010000D    291
     508       0       0       1       1                               0D    292
     508     227       0       0       0                        00010000D    293
     508       0       0       1       1                               0D    294
     510     228       0       0       0                        00010000D    295
     510       0      -1       1       1                               0D    296
     110     229       0       0       0                        01010000D    297
     110       0       0       1       0                               0D    298
     110     230       0       0       0                        01010000D    299
     110       0       0       1       0                               0D    300
     120     231       0       0       0                        01010000D    301
     120       0      -1       1       0                               0D    302
     508     232       0       0       0                        00010000D    303
     508       0       0       1       1                               0D    304
     510     233       0       0       0                        00010000D    305
     510       0      -1       1       1                               0D    306
     116     234       0       0       0                        00010000D    307
     116       0       0       1       0                               0D    308
     123     235       0       0       0                        00010200D    309
     123       0       0       1       0                               0D    310
     123     236       0       0       0                        00010200D    311
     123       0       0       1       0                               0D    312
     190     237       0       0       0                        00010000D    313
     190       0      -1       1       1                               0D    314
     508     238       0       0       0                        00010000D    315
     508       0       0       1       1                               0D    316
     508     239       0       0       0                        00010000D    317
     508       0       0       1       1                               0D    318
     510     240       0       0       0                        00010000D    319
     510       0      -1       1       1                               0D    320
     110     241       0       0       0                        01010000D    321
     110       0       0       1       0                               0D    322
     110     242       0       0       0                        01010000D    323
     110       0       0       1       0                               0D    324
     120     243       0       0       0                        01010000D    325
     120       0      -1       1       0                               0D    326
     508     244       0       0       0                        00010000D    327
     508       0       0       1       1                               0D    328
     510     245       0       0       0                        00010000D    329
     510       0      -1       1       1                               0D    330
     514     246       0       0       0                        00010000D    331
     514       0       0       2       1                               0D    332
     186     248       0       0       0                        00000000D    333
     186       0       0       1       0                               0D    334
314,100.,50.1960784313725,50.1960784313725,;                           1P      1
502,24,0.,-21.,-46.1,0.,-20.3,-50.,0.,21.,-46.1,0.,20.7,0.,0.,         3P      2
20.3,-50.9,0.,24.,-50.,0.,20.7,-46.1,0.,18.5,-47.,0.,-21.,             3P      3
-53.45,0.,24.,0.,0.,-21.,-50.9,0.,20.3,-50.,0.,-24.,0.,0.,             3P      4
-20.7,0.,0.,21.,-47.,0.,21.,-53.45,0.,-18.5,-47.,0.,-18.5,             3P      5
-53.45,0.,-21.,-47.,0.,21.,-50.9,0.,18.5,-53.45,0.,-24.,-50.,          3P      6
0.,-20.3,-50.9,0.,-20.7,-46.1;                                         3P      7
110,0.,18.5,-47.,0.,18.5,-53.45;                                       5P      8
124,1.60814287233912E-016,-1.,6.98296672221876E-015,                   7P      9
3.27560201185406E-013,-1.,-1.60814287233912E-016,0.,                   7P     10
5.64543529112116E-015,1.12296081621174E-030,                           7P     11
-6.98296672221876E-015,-1.,-92.2;                                      7P     12
100,-46.1,0.,0.,20.7,0.,-20.7,0.;                                      9P     13
124,1.60814287233912E-016,-1.,6.98296672221876E-015,                  11P     14
3.61666252501891E-013,-1.,-1.60814287233912E-016,0.,                  11P     15
6.2332463409559E-015,1.12296081621174E-030,                           11P     16
-6.98296672221876E-015,-1.,-101.8;                                    11P     17
100,-50.9,0.,0.,21.,0.,-21.,0.;                                       13P     18
110,0.,24.,0.,0.,24.,-50.;                                            15P     19
110,0.,-18.5,-47.,0.,-18.5,-53.45;                                    17P     20
124,1.60814287233912E-016,-1.,6.98296672221876E-015,                  19P     21
3.79785092263773E-013,-1.,-1.60814287233912E-016,0.,                  19P     22
6.54552096118061E-015,1.12296081621174E-030,                          19P     23
-6.98296672221876E-015,-1.,-106.9;                                    19P     24
100,-53.45,0.,0.,21.,0.,-21.,0.;                                      21P     25
124,1.39047031267464E-014,1.,-6.98296672221876E-015,0.,1.,            23P     26
-1.39047031267464E-014,2.44921270764475E-016,0.,                      23P     27
2.44921270764377E-016,-6.98296672221877E-015,-1.,0.;                  23P     28
100,0.,0.,0.,24.,0.,-24.,0.;                                          25P     29
110,0.,20.3,-50.,0.,20.3,-50.9;                                       27P     30
124,1.60814287233912E-016,-1.,6.98296672221876E-015,                  29P     31
3.27560201185406E-013,-1.,-1.60814287233912E-016,0.,                  29P     32
5.64543529112116E-015,1.12296081621174E-030,                          29P     33
-6.98296672221876E-015,-1.,-92.2;                                     29P     34
100,-46.1,0.,0.,21.,0.,-21.,0.;                                       31P     35
124,1.39047031267464E-014,1.,-6.98296672221876E-015,                  33P     36
-3.79785092263773E-013,1.,-1.39047031267464E-014,                     33P     37
-8.55138541655932E-031,6.54552096118065E-015,                         33P     38
-9.79512177580573E-029,-6.98296672221876E-015,-1.,-106.9;             33P     39
100,-53.45,0.,0.,21.,0.,-21.,0.;                                      35P     40
124,1.39047031267464E-014,1.,-6.98296672221876E-015,                  37P     41
-3.5527136788005E-013,1.,-1.39047031267464E-014,                      37P     42
-8.55138541655932E-031,6.12303176911193E-015,                         37P     43
-9.79512177580573E-029,-6.98296672221876E-015,-1.,-100.;              37P     44
100,-50.,0.,0.,20.3,0.,-20.3,0.;                                      39P     45
110,0.,20.7,0.,0.,20.7,-46.1;                                         41P     46
124,1.39047031267464E-014,1.,-6.98296672221876E-015,                  43P     47
-3.33955085807247E-013,1.,-1.39047031267464E-014,                     43P     48
-8.55138541655932E-031,5.75564986296521E-015,                         43P     49
-9.79512177580573E-029,-6.98296672221876E-015,-1.,-94.;               43P     50
100,-47.,0.,0.,21.,0.,-21.,0.;                                        45P     51
124,1.60814287233912E-016,-1.,6.98296672221876E-015,                  47P     52
3.5527136788005E-013,-1.,-1.60814287233912E-016,0.,                   47P     53
6.12303176911189E-015,1.12296081621174E-030,                          47P     54
-6.98296672221876E-015,-1.,-100.;                                     47P     55
100,-50.,0.,0.,20.3,0.,-20.3,0.;                                      49P     56
124,1.60814287233912E-016,-1.,6.98296672221876E-015,                  51P     57
3.79785092263774E-013,-1.,-1.60814287233912E-016,0.,                  51P     58
6.54552096118061E-015,1.12296081621174E-030,                          51P     59
-6.98296672221876E-015,-1.,-106.9;                                    51P     60
100,-53.45,0.,0.,18.5,0.,-18.5,0.;                                    53P     61
124,1.39047031267464E-014,1.,-6.98296672221876E-015,                  55P     62
-3.27560201185406E-013,1.,-1.39047031267464E-014,                     55P     63
-8.55138541655932E-031,5.6454352911212E-015,                          55P     64
-9.79512177580573E-029,-6.98296672221876E-015,-1.,-92.2;              55P     65
100,-46.1,0.,0.,21.,0.,-21.,0.;                                       57P     66
124,1.60814287233912E-016,-1.,6.98296672221876E-015,                  59P     67
3.61666252501891E-013,-1.,-1.60814287233912E-016,0.,                  59P     68
6.2332463409559E-015,1.12296081621174E-030,                           59P     69
-6.98296672221876E-015,-1.,-101.8;                                    59P     70
100,-50.9,0.,0.,20.3,0.,-20.3,0.;                                     61P     71
124,1.39047031267464E-014,1.,-6.98296672221876E-015,0.,1.,            63P     72
-1.39047031267464E-014,2.44921270764475E-016,0.,                      63P     73
2.44921270764377E-016,-6.98296672221877E-015,-1.,0.;                  63P     74
100,0.,0.,0.,20.7,0.,-20.7,0.;                                        65P     75
124,1.60814287233913E-016,-1.,6.98296672221876E-015,0.,-1.,           67P     76
-1.60814287233912E-016,2.44921270764475E-016,0.,                      67P     77
-2.44921270764474E-016,-6.98296672221876E-015,-1.,0.;                 67P     78
100,0.,0.,0.,24.,0.,-24.,0.;                                          69P     79
124,1.60814287233913E-016,-1.,6.98296672221876E-015,0.,-1.,           71P     80
-1.60814287233912E-016,2.44921270764475E-016,0.,                      71P     81
-2.44921270764474E-016,-6.98296672221876E-015,-1.,0.;                 71P     82
100,0.,0.,0.,20.7,0.,-20.7,0.;                                        73P     83
124,1.39047031267464E-014,1.,-6.98296672221876E-015,                  75P     84
-3.33955085807247E-013,1.,-1.39047031267464E-014,                     75P     85
-8.55138541655932E-031,5.75564986296521E-015,                         75P     86
-9.79512177580573E-029,-6.98296672221876E-015,-1.,-94.;               75P     87
100,-47.,0.,0.,18.5,0.,-18.5,0.;                                      77P     88
110,0.,-24.,0.,0.,-24.,-50.;                                          79P     89
110,0.,-21.,-46.1,0.,-21.,-47.;                                       81P     90
110,0.,21.,-50.9,0.,21.,-53.45;                                       83P     91
124,1.60814287233912E-016,-1.,6.98296672221876E-015,                  85P     92
3.5527136788005E-013,-1.,-1.60814287233912E-016,0.,                   85P     93
6.12303176911189E-015,1.12296081621174E-030,                          85P     94
-6.98296672221876E-015,-1.,-100.;                                     85P     95
100,-50.,0.,0.,24.,0.,-24.,0.;                                        87P     96
110,0.,-20.3,-50.,0.,-20.3,-50.9;                                     89P     97
124,1.39047031267464E-014,1.,-6.98296672221876E-015,                  91P     98
-3.61666252501891E-013,1.,-1.39047031267464E-014,                     91P     99
-8.55138541655932E-031,6.23324634095594E-015,                         91P    100
-9.79512177580573E-029,-6.98296672221876E-015,-1.,-101.8;             91P    101
100,-50.9,0.,0.,21.,0.,-21.,0.;                                       93P    102
110,0.,-20.7,0.,0.,-20.7,-46.1;                                       95P    103
124,1.39047031267464E-014,1.,-6.98296672221876E-015,                  97P    104
-3.5527136788005E-013,1.,-1.39047031267464E-014,                      97P    105
-8.55138541655932E-031,6.12303176911193E-015,                         97P    106
-9.79512177580573E-029,-6.98296672221876E-015,-1.,-100.;              97P    107
100,-50.,0.,0.,24.,0.,-24.,0.;                                        99P    108
124,1.60814287233912E-016,-1.,6.98296672221876E-015,                 101P    109
3.33955085807247E-013,-1.,-1.60814287233912E-016,0.,                 101P    110
5.75564986296517E-015,1.12296081621174E-030,                         101P    111
-6.98296672221876E-015,-1.,-94.;                                     101P    112
100,-47.,0.,0.,18.5,0.,-18.5,0.;                                     103P    113
110,0.,21.,-46.1,0.,21.,-47.;                                        105P    114
124,1.60814287233912E-016,-1.,6.98296672221876E-015,                 107P    115
3.33955085807247E-013,-1.,-1.60814287233912E-016,0.,                 107P    116
5.75564986296517E-015,1.12296081621174E-030,                         107P    117
-6.98296672221876E-015,-1.,-94.;                                     107P    118
100,-47.,0.,0.,21.,0.,-21.,0.;                                       109P    119
124,1.39047031267464E-014,1.,-6.98296672221876E-015,                 111P    120
-3.27560201185406E-013,1.,-1.39047031267464E-014,                    111P    121
-8.55138541655932E-031,5.6454352911212E-015,                         111P    122
-9.79512177580573E-029,-6.98296672221876E-015,-1.,-92.2;             111P    123
100,-46.1,0.,0.,20.7,0.,-20.7,0.;                                    113P    124
124,1.39047031267464E-014,1.,-6.98296672221876E-015,                 115P    125
-3.61666252501891E-013,1.,-1.39047031267464E-014,                    115P    126
-8.55138541655932E-031,6.23324634095594E-015,                        115P    127
-9.79512177580573E-029,-6.98296672221876E-015,-1.,-101.8;            115P    128
100,-50.9,0.,0.,20.3,0.,-20.3,0.;                                    117P    129
124,1.39047031267464E-014,1.,-6.98296672221876E-015,                 119P    130
-3.79785092263774E-013,1.,-1.39047031267464E-014,                    119P    131
-8.55138541655932E-031,6.54552096118065E-015,                        119P    132
-9.79512177580573E-029,-6.98296672221876E-015,-1.,-106.9;            119P    133
100,-53.45,0.,0.,18.5,0.,-18.5,0.;                                   121P    134
110,0.,-21.,-50.9,0.,-21.,-53.45;                                    123P    135
504,36,5,3,8,3,21,9,3,24,3,7,13,3,11,3,20,15,3,10,3,6,17,3,17,       125P    136
3,18,21,3,9,3,16,25,3,10,3,13,27,3,12,3,5,31,3,1,3,3,35,3,16,3,      125P    137
9,39,3,12,3,2,41,3,4,3,7,45,3,15,3,19,49,3,2,3,12,53,3,18,3,21,      125P    138
57,3,3,3,1,61,3,23,3,5,65,3,4,3,14,69,3,13,3,10,73,3,14,3,4,77,      125P    139
3,8,3,17,79,3,13,3,22,81,3,1,3,19,83,3,20,3,16,87,3,22,3,6,89,       125P    140
3,2,3,23,93,3,20,3,11,95,3,14,3,24,99,3,6,3,22,103,3,17,3,8,         125P    141
105,3,3,3,15,109,3,19,3,15,113,3,7,3,24,117,3,5,3,23,121,3,21,       125P    142
3,18,123,3,11,3,9;                                                   125P    143
110,0.,0.,0.,0.,0.,-1000.;                                           127P    144
110,0.,20.7,0.,0.,20.7,-46.1;                                        129P    145
120,127,129,0.,6.28318530717959;                                     131P    146
508,4,0,125,20,0,0,0,125,28,1,0,0,125,2,1,0,0,125,12,0,0;            133P    147
510,131,1,1,133;                                                     135P    148
110,0.,0.,0.,0.,0.,-1000.;                                           137P    149
110,0.,21.,-46.1,0.,21.,-47.;                                        139P    150
120,137,139,0.,6.28318530717959;                                     141P    151
508,4,0,125,9,0,0,0,125,23,1,0,0,125,32,1,0,0,125,31,0,0;            143P    152
510,141,1,1,143;                                                     145P    153
110,0.,0.,0.,0.,0.,-1000.;                                           147P    154
110,0.,18.5,-47.,0.,18.5,-53.45;                                     149P    155
120,147,149,0.,6.28318530717959;                                     151P    156
508,4,0,125,30,0,0,0,125,5,1,0,0,125,15,1,0,0,125,1,0,0;             153P    157
510,151,1,1,153;                                                     155P    158
110,0.,0.,0.,0.,0.,-1000.;                                           157P    159
110,0.,21.,-53.45,0.,21.,-50.9;                                      159P    160
120,157,159,0.,6.28318530717959;                                     161P    161
508,4,0,125,27,1,0,0,125,36,1,0,0,125,10,0,0,0,125,24,0,0;           163P    162
510,161,1,1,163;                                                     165P    163
110,0.,0.,0.,0.,0.,-1000.;                                           167P    164
110,0.,20.3,-50.9,0.,20.3,-50.;                                      169P    165
120,167,169,0.,6.28318530717959;                                     171P    166
508,4,0,125,11,1,0,0,125,26,1,0,0,125,34,0,0,0,125,8,0,0;            173P    167
510,171,1,1,173;                                                     175P    168
110,0.,0.,0.,0.,0.,-1000.;                                           177P    169
110,0.,24.,-50.,0.,24.,0.;                                           179P    170
120,177,179,0.,6.28318530717959;                                     181P    171
508,4,0,125,7,1,0,0,125,22,1,0,0,125,29,0,0,0,125,4,0,0;             183P    172
510,181,1,1,183;                                                     185P    173
116,0.,24.,0.,;                                                      187P    174
123,0.,0.,1.;                                                        189P    175
123,0.707106781,-0.707106781,0.;                                     191P    176
190,187,189,191;                                                     193P    177
508,2,0,125,7,0,0,0,125,19,0,0;                                      195P    178
508,2,0,125,18,1,0,0,125,20,1,0;                                     197P    179
510,193,2,1,195,197;                                                 199P    180
110,0.,0.,0.,0.,0.,-1000.;                                           201P    181
110,0.,24.,-50.,0.,24.,0.;                                           203P    182
120,201,203,0.,6.28318530717959;                                     205P    183
508,4,0,125,22,0,0,0,125,19,1,0,0,125,4,1,0,0,125,25,0,0;            207P    184
510,205,1,1,207;                                                     209P    185
116,0.,20.3,-50.,;                                                   211P    186
123,0.,0.,-1.;                                                       213P    187
123,-0.707106781,0.707106781,0.;                                     215P    188
190,211,213,215;                                                     217P    189
508,2,0,125,29,1,0,0,125,25,1,0;                                     219P    190
508,2,0,125,11,0,0,0,125,14,0,0;                                     221P    191
510,217,2,1,219,221;                                                 223P    192
110,0.,0.,0.,0.,0.,-1000.;                                           225P    193
110,0.,20.3,-50.9,0.,20.3,-50.;                                      227P    194
120,225,227,0.,6.28318530717959;                                     229P    195
508,4,0,125,26,0,0,0,125,14,1,0,0,125,8,1,0,0,125,17,0,0;            231P    196
510,229,1,1,231;                                                     233P    197
116,0.,21.,-50.9,;                                                   235P    198
123,0.,0.,1.;                                                        237P    199
123,0.707106781,-0.707106781,0.;                                     239P    200
190,235,237,239;                                                     241P    201
508,2,0,125,27,0,0,0,125,3,0,0;                                      243P    202
508,2,0,125,34,1,0,0,125,17,1,0;                                     245P    203
510,241,2,1,243,245;                                                 247P    204
110,0.,0.,0.,0.,0.,-1000.;                                           249P    205
110,0.,21.,-53.45,0.,21.,-50.9;                                      251P    206
120,249,251,0.,6.28318530717959;                                     253P    207
508,4,0,125,36,0,0,0,125,3,1,0,0,125,24,1,0,0,125,6,0,0;             255P    208
510,253,1,1,255;                                                     257P    209
116,0.,18.5,-53.45,;                                                 259P    210
123,0.,0.,-1.;                                                       261P    211
123,-0.707106781,0.707106781,0.;                                     263P    212
190,259,261,263;                                                     265P    213
508,2,0,125,10,1,0,0,125,6,1,0;                                      267P    214
508,2,0,125,35,0,0,0,125,15,0,0;                                     269P    215
510,265,2,1,267,269;                                                 271P    216
110,0.,0.,0.,0.,0.,-1000.;                                           273P    217
110,0.,18.5,-47.,0.,18.5,-53.45;                                     275P    218
120,273,275,0.,6.28318530717959;                                     277P    219
508,4,0,125,5,0,0,0,125,21,0,0,0,125,1,1,0,0,125,35,1,0;             279P    220
510,277,1,1,279;                                                     281P    221
116,0.,21.,-47.,;                                                    283P    222
123,0.,0.,1.;                                                        285P    223
123,0.707106781,-0.707106781,0.;                                     287P    224
190,283,285,287;                                                     289P    225
508,2,0,125,13,0,0,0,125,32,0,0;                                     291P    226
508,2,0,125,21,1,0,0,125,30,1,0;                                     293P    227
510,289,2,1,291,293;                                                 295P    228
110,0.,0.,0.,0.,0.,-1000.;                                           297P    229
110,0.,21.,-46.1,0.,21.,-47.;                                        299P    230
120,297,299,0.,6.28318530717959;                                     301P    231
508,4,0,125,23,0,0,0,125,16,0,0,0,125,31,1,0,0,125,13,1,0;           303P    232
510,301,1,1,303;                                                     305P    233
116,0.,20.7,-46.1,;                                                  307P    234
123,0.,0.,-1.;                                                       309P    235
123,-0.707106781,0.707106781,0.;                                     311P    236
190,307,309,311;                                                     313P    237
508,2,0,125,16,1,0,0,125,9,1,0;                                      315P    238
508,2,0,125,33,0,0,0,125,2,0,0;                                      317P    239
510,313,2,1,315,317;                                                 319P    240
110,0.,0.,0.,0.,0.,-1000.;                                           321P    241
110,0.,20.7,0.,0.,20.7,-46.1;                                        323P    242
120,321,323,0.,6.28318530717959;                                     325P    243
508,4,0,125,28,0,0,0,125,18,0,0,0,125,12,1,0,0,125,33,1,0;           327P    244
510,325,1,1,327;                                                     329P    245
514,18,135,1,145,1,155,1,165,1,175,1,185,1,199,1,209,1,223,1,        331P    246
233,1,247,1,257,1,271,1,281,1,295,1,305,1,319,1,329,1;               331P    247
186,331,1,0;                                                         333P    248
S      1G      5D    334P    248                                        T      1
