                                                                        S      1
1H,,1H;,60HC:\Users\dand\Desktop\temp\ExportCad\doublets\IGES_63765.IGS,G      1
60HC:\Users\dand\Desktop\temp\ExportCad\doublets\IGES_63765.IGS,23HHarmoG      2
nyWare Translators,23HHarmonyWare IGES v2.0.2,32,38,6,308,15,,1.,2,2HMM,G      3
1,1.,15H20161213.151618,0.0001,176.,,,11,0,15H20161213.151618;          G      4
     502       1       0       0       0       0       0       000010000D      1
     502       0       0       2       1                               0D      2
     126       3       0       0       0       0       0       000010000D      3
     126       0       0      11       0                               0D      4
     126      14       0       0       0       0       0       000010000D      5
     126       0       0      11       0                               0D      6
     126      25       0       0       0       0       0       000010000D      7
     126       0       0      11       0                               0D      8
     126      36       0       0       0       0       0       000010000D      9
     126       0       0       2       0                               0D     10
     504      38       0       0       0       0       0       000010000D     11
     504       0       0       1       1                               0D     12
     128      39       0       0       0       0       0       000010000D     13
     128       0       0      28       0                               0D     14
     508      67       0       0       0       0       0       000010000D     15
     508       0       0       1       1                               0D     16
     406      68       0       0       0       0       0       000000000D     17
     406       0       0       1    7223                               0D     18
     510      69       0       0       0       0       0       000010000D     19
     510       0       0       1       1                               0D     20
     128      70       0       0       0       0       0       000010000D     21
     128       0       0       5       0                               0D     22
     508      75       0       0       0       0       0       000010000D     23
     508       0       0       1       1                               0D     24
     508      76       0       0       0       0       0       000010000D     25
     508       0       0       1       1                               0D     26
     406      77       0       0       0       0       0       000000000D     27
     406       0       0       1    7223                               0D     28
     510      78       0       0       0       0       0       000010000D     29
     510       0       0       1       1                               0D     30
     128      79       0       0       0       0       0       000010000D     31
     128       0       0      19       0                               0D     32
     508      98       0       0       0       0       0       000010000D     33
     508       0       0       1       1                               0D     34
     406      99       0       0       0       0       0       000000000D     35
     406       0       0       1    7223                               0D     36
     510     100       0       0       0       0       0       000010000D     37
     510       0       0       1       1                               0D     38
     128     101       0       0       0       0       0       000010000D     39
     128       0       0      15       0                               0D     40
     508     116       0       0       0       0       0       000010000D     41
     508       0       0       1       1                               0D     42
     406     117       0       0       0       0       0       000000000D     43
     406       0       0       1    7223                               0D     44
     510     118       0       0       0       0       0       000010000D     45
     510       0       0       1       1                               0D     46
     514     119       0       0       0       0       0       000010000D     47
     514       0       0       1       1                               0D     48
     186     120       0       0       0       0       0       000000000D     49
     186       0       0       1       0                               0D     50
     502     121       0       0       0       0       0       000010000D     51
     502       0       0       2       1                               0D     52
     126     123       0       0       0       0       0       000010000D     53
     126       0       0      11       0                               0D     54
     126     134       0       0       0       0       0       000010000D     55
     126       0       0      11       0                               0D     56
     126     145       0       0       0       0       0       000010000D     57
     126       0       0      11       0                               0D     58
     126     156       0       0       0       0       0       000010000D     59
     126       0       0       2       0                               0D     60
     504     158       0       0       0       0       0       000010000D     61
     504       0       0       1       1                               0D     62
     128     159       0       0       0       0       0       000010000D     63
     128       0       0      19       0                               0D     64
     508     178       0       0       0       0       0       000010000D     65
     508       0       0       1       1                               0D     66
     406     179       0       0       0       0       0       000000000D     67
     406       0       0       1    7223                               0D     68
     510     180       0       0       0       0       0       000010000D     69
     510       0       0       1       1                               0D     70
     128     181       0       0       0       0       0       000010000D     71
     128       0       0      17       0                               0D     72
     508     198       0       0       0       0       0       000010000D     73
     508       0       0       1       1                               0D     74
     406     199       0       0       0       0       0       000000000D     75
     406       0       0       1    7223                               0D     76
     510     200       0       0       0       0       0       000010000D     77
     510       0       0       1       1                               0D     78
     128     201       0       0       0       0       0       000010000D     79
     128       0       0       5       0                               0D     80
     508     206       0       0       0       0       0       000010000D     81
     508       0       0       1       1                               0D     82
     508     207       0       0       0       0       0       000010000D     83
     508       0       0       1       1                               0D     84
     406     208       0       0       0       0       0       000000000D     85
     406       0       0       1    7223                               0D     86
     510     209       0       0       0       0       0       000010000D     87
     510       0       0       1       1                               0D     88
     128     210       0       0       0       0       0       000010000D     89
     128       0       0      15       0                               0D     90
     508     225       0       0       0       0       0       000010000D     91
     508       0       0       1       1                               0D     92
     406     226       0       0       0       0       0       000000000D     93
     406       0       0       1    7223                               0D     94
     510     227       0       0       0       0       0       000010000D     95
     510       0       0       1       1                               0D     96
     514     228       0       0       0       0       0       000010000D     97
     514       0       0       1       1                               0D     98
     186     229       0       0       0       0       0       000000000D     99
     186       0       0       1       0                               0D    100
502,3,19.6,0.,-3.28525099043553,20.,0.,-3.28525099043553,20.,0.,       1P      1
8.32257545491916;                                                      1P      2
126,8,2,0,1,0,0,0.,0.,0.,1.5707963267949,1.5707963267949,              3P      3
3.14159265358979,3.14159265358979,4.71238898038469,                    3P      4
4.71238898038469,6.28318530717959,6.28318530717959,                    3P      5
6.28318530717959,1.,0.707106781186548,1.,0.707106781186548,1.,         3P      6
0.707106781186548,1.,0.707106781186548,1.,19.6,0.,                     3P      7
-3.28525099043553,19.6,19.6,-3.28525099043553,                         3P      8
1.20015386316441D-15,19.6,-3.28525099043553,-19.6,19.6,                3P      9
-3.28525099043553,-19.6,2.40030772632881D-15,-3.28525099043553,        3P     10
-19.6,-19.6,-3.28525099043553,-3.60046158949322D-15,-19.6,             3P     11
-3.28525099043553,19.6,-19.6,-3.28525099043553,19.6,0.,                3P     12
-3.28525099043553,0.,6.28318530717959,0.,0.,0.;                        3P     13
126,8,2,0,1,0,0,0.,0.,0.,1.5707963267949,1.5707963267949,              5P     14
3.14159265358979,3.14159265358979,4.71238898038469,                    5P     15
4.71238898038469,6.28318530717959,6.28318530717959,                    5P     16
6.28318530717959,1.,0.707106781186548,1.,0.707106781186548,1.,         5P     17
0.707106781186548,1.,0.707106781186548,1.,20.,0.,                      5P     18
-3.28525099043553,20.,20.,-3.28525099043553,                           5P     19
1.22464679914735D-15,20.,-3.28525099043553,-20.,20.,                   5P     20
-3.28525099043553,-20.,2.44929359829471D-15,-3.28525099043553,         5P     21
-20.,-20.,-3.28525099043553,-3.67394039744206D-15,-20.,                5P     22
-3.28525099043553,20.,-20.,-3.28525099043553,20.,0.,                   5P     23
-3.28525099043553,0.,6.28318530717959,0.,0.,0.;                        5P     24
126,8,2,0,1,0,0,0.,0.,0.,1.5707963267949,1.5707963267949,              7P     25
3.14159265358979,3.14159265358979,4.71238898038469,                    7P     26
4.71238898038469,6.28318530717959,6.28318530717959,                    7P     27
6.28318530717959,1.,0.707106781186548,1.,0.707106781186548,1.,         7P     28
0.707106781186548,1.,0.707106781186548,1.,20.,0.,                      7P     29
8.32257545491916,20.,20.,8.32257545491916,1.22464679914735D-15,        7P     30
20.,8.32257545491916,-20.,20.,8.32257545491916,-20.,                   7P     31
2.44929359829471D-15,8.32257545491916,-20.,-20.,                       7P     32
8.32257545491916,-3.67394039744206D-15,-20.,8.32257545491916,          7P     33
20.,-20.,8.32257545491916,20.,0.,8.32257545491916,0.,                  7P     34
6.28318530717959,0.,0.,0.;                                             7P     35
126,1,1,0,0,1,0,0.,0.,1.,1.,1.,1.,20.,0.,-3.28525099043553,20.,        9P     36
0.,8.32257545491916,0.,1.,0.,0.,0.;                                    9P     37
504,4,3,1,1,1,1,5,1,2,1,2,7,1,3,1,3,9,1,2,1,3;                        11P     38
128,4,4,2,2,0,0,0,0,0,0.,0.,0.,0.5,0.5,1.,1.,1.,0.,0.,0.,0.5,         13P     39
0.5,1.,1.,1.,1.,0.707106781186548,1.,0.707106781186548,1.,            13P     40
0.707106781186548,0.5,0.707106781186548,0.5,0.707106781186548,        13P     41
1.,0.707106781186548,1.,0.707106781186548,1.,0.707106781186548,       13P     42
0.5,0.707106781186548,0.5,0.707106781186548,1.,                       13P     43
0.707106781186548,1.,0.707106781186548,1.,60.1099999999998,0.,        13P     44
-60.1099999999998,60.1099999999998,0.,-60.1099999999998,              13P     45
60.1099999999998,0.,-60.1099999999998,60.1099999999998,0.,            13P     46
-60.1099999999998,60.1099999999998,0.,-60.1099999999998,              13P     47
60.1099999999998,-60.1099999999998,-60.1099999999998,                 13P     48
60.1099999999998,-60.1099999999998,4.96117489963997D-15,              13P     49
60.1099999999998,9.92234979927995D-15,-1.4210854715202D-14,           13P     50
60.1099999999998,60.1099999999998,-2.98301706512435D-14,              13P     51
60.1099999999998,60.1099999999998,-60.1099999999998,                  13P     52
3.68067595483736D-15,-60.1099999999998,-60.1099999999998,             13P     53
3.68067595483736D-15,-60.1099999999998,2.6277456972443D-14,           13P     54
3.68067595483736D-15,9.92234979927995D-15,7.105427357601D-15,         13P     55
3.68067595483736D-15,60.1099999999998,-8.51388857844048D-15,          13P     56
3.68067595483736D-15,60.1099999999998,-60.1099999999998,              13P     57
-60.1099999999998,-60.1099999999998,-60.1099999999998,                13P     58
-60.1099999999998,-60.1099999999998,2.6277456972443D-14,              13P     59
-60.1099999999998,9.92234979927995D-15,7.105427357601D-15,            13P     60
-60.1099999999998,60.1099999999998,-8.51388857844048D-15,             13P     61
-60.1099999999998,60.1099999999998,-60.1099999999998,                 13P     62
-60.1099999999998,0.,-60.1099999999998,-60.1099999999998,0.,          13P     63
-60.1099999999998,-60.1099999999998,0.,-60.1099999999998,             13P     64
-60.1099999999998,0.,-60.1099999999998,-60.1099999999998,0.,          13P     65
-60.1099999999998,0.,1.,0.,1.;                                        13P     66
508,1,0,11,1,1,0;                                                     15P     67
406,1,1;                                                              17P     68
510,13,1,1,15,0,1,17;                                                 19P     69
128,1,1,1,1,0,0,1,0,0,-20.001,-20.001,20.001,20.001,-20.001,          21P     70
-20.001,20.001,20.001,1.,1.,1.,1.,-20.001,20.001,                     21P     71
-3.28525099043553,-20.001,-20.001,-3.28525099043553,20.001,           21P     72
20.001,-3.28525099043553,20.001,-20.001,-3.28525099043553,            21P     73
-20.001,20.001,-20.001,20.001;                                        21P     74
508,1,0,11,2,1,0;                                                     23P     75
508,1,0,11,1,0,0;                                                     25P     76
406,1,0;                                                              27P     77
510,21,2,1,23,25,0,1,27;                                              29P     78
128,4,4,2,2,0,0,0,0,0,0.,0.,0.,0.5,0.5,1.,1.,1.,0.,0.,0.,0.5,         31P     79
0.5,1.,1.,1.,1.,0.707106781186548,1.,0.707106781186548,1.,            31P     80
0.707106781186548,0.5,0.707106781186548,0.5,0.707106781186548,        31P     81
1.,0.707106781186548,1.,0.707106781186548,1.,0.707106781186548,       31P     82
0.5,0.707106781186548,0.5,0.707106781186548,1.,                       31P     83
0.707106781186548,1.,0.707106781186548,1.,-48.43,0.,52.43,            31P     84
-48.43,0.,52.43,-48.43,0.,52.43,-48.43,0.,52.43,-48.43,0.,52.43,      31P     85
-48.43,-48.4299999999999,52.4299999999999,-48.43,                     31P     86
-48.4299999999999,3.99999999999998,-48.43,4.23317702312941D-14,       31P     87
4.00000000000001,-48.43,48.43,4.00000000000005,-48.43,48.43,          31P     88
52.43,-2.96548222413531D-15,-48.43,52.4299999999999,                  31P     89
-2.96548222413531D-15,-48.4299999999999,3.99999999999997,             31P     90
-2.96548222413531D-15,4.23317702312941D-14,4.00000000000001,          31P     91
-2.96548222413531D-15,48.43,4.00000000000004,                         31P     92
-2.96548222413531D-15,48.43,52.43,48.43,-48.43,52.4299999999999,      31P     93
48.43,-48.4299999999999,3.99999999999996,48.43,                       31P     94
4.23317702312941D-14,4.,48.43,48.43,4.00000000000004,48.43,           31P     95
48.43,52.43,48.43,0.,52.43,48.43,0.,52.43,48.43,0.,52.43,48.43,       31P     96
0.,52.43,48.43,0.,52.43,0.,1.,0.,1.;                                  31P     97
508,1,0,11,3,0,0;                                                     33P     98
406,1,2;                                                              35P     99
510,31,1,1,33,0,1,35;                                                 37P    100
128,8,1,2,1,1,0,0,0,0,0.,0.,0.,0.25,0.25,0.5,0.5,0.75,0.75,1.,        39P    101
1.,1.,0.,0.,1.,1.,1.,0.707106781186548,1.,0.707106781186548,1.,       39P    102
0.707106781186548,1.,0.707106781186548,1.,1.,0.707106781186548,       39P    103
1.,0.707106781186548,1.,0.707106781186548,1.,0.707106781186548,       39P    104
1.,20.,0.,-3.28525099043553,20.,-20.,-3.28525099043553,               39P    105
-4.56211881714218D-15,-20.,-3.28525099043553,-20.,-20.,               39P    106
-3.28525099043553,-20.,6.00200727709521D-15,-3.28525099043553,        39P    107
-20.,20.,-3.28525099043553,3.88918205824773D-15,20.,                  39P    108
-3.28525099043553,20.,20.,-3.28525099043553,20.,0.,                   39P    109
-3.28525099043553,20.,0.,8.32257545491916,20.,-20.,                   39P    110
8.32257545491916,-4.56211881714218D-15,-20.,8.32257545491916,         39P    111
-20.,-20.,8.32257545491916,-20.,6.00200727709521D-15,                 39P    112
8.32257545491916,-20.,20.,8.32257545491916,3.88918205824773D-15,      39P    113
20.,8.32257545491916,20.,20.,8.32257545491916,20.,0.,                 39P    114
8.32257545491916,0.,1.,0.,1.;                                         39P    115
508,4,0,11,4,0,0,0,11,2,0,0,0,11,4,1,0,0,11,3,1,0;                    41P    116
406,1,0;                                                              43P    117
510,39,1,1,41,0,1,43;                                                 45P    118
514,4,19,1,29,1,37,1,45,1;                                            47P    119
186,47,0,0;                                                           49P    120
502,3,20.,0.,8.32257545491916,19.6,0.,11.7903849272929,20.,0.,        51P    121
11.7903849272929;                                                     51P    122
126,8,2,0,1,0,0,0.,0.,0.,1.5707963267949,1.5707963267949,             53P    123
3.14159265358979,3.14159265358979,4.71238898038469,                   53P    124
4.71238898038469,6.28318530717959,6.28318530717959,                   53P    125
6.28318530717959,1.,0.707106781186548,1.,0.707106781186548,1.,        53P    126
0.707106781186548,1.,0.707106781186548,1.,20.,0.,                     53P    127
8.32257545491916,20.,20.,8.32257545491916,1.22464679914735D-15,       53P    128
20.,8.32257545491916,-20.,20.,8.32257545491916,-20.,                  53P    129
2.44929359829471D-15,8.32257545491916,-20.,-20.,                      53P    130
8.32257545491916,-3.67394039744206D-15,-20.,8.32257545491916,         53P    131
20.,-20.,8.32257545491916,20.,0.,8.32257545491916,0.,                 53P    132
6.28318530717959,0.,0.,0.;                                            53P    133
126,8,2,0,1,0,0,0.,0.,0.,1.5707963267949,1.5707963267949,             55P    134
3.14159265358979,3.14159265358979,4.71238898038469,                   55P    135
4.71238898038469,6.28318530717959,6.28318530717959,                   55P    136
6.28318530717959,1.,0.707106781186548,1.,0.707106781186548,1.,        55P    137
0.707106781186548,1.,0.707106781186548,1.,19.6,0.,                    55P    138
11.7903849272929,19.6,19.6,11.7903849272929,                          55P    139
1.20015386316441D-15,19.6,11.7903849272929,-19.6,19.6,                55P    140
11.7903849272929,-19.6,2.40030772632881D-15,11.7903849272929,         55P    141
-19.6,-19.6,11.7903849272929,-3.60046158949322D-15,-19.6,             55P    142
11.7903849272929,19.6,-19.6,11.7903849272929,19.6,0.,                 55P    143
11.7903849272929,0.,6.28318530717959,0.,0.,0.;                        55P    144
126,8,2,0,1,0,0,0.,0.,0.,1.5707963267949,1.5707963267949,             57P    145
3.14159265358979,3.14159265358979,4.71238898038469,                   57P    146
4.71238898038469,6.28318530717959,6.28318530717959,                   57P    147
6.28318530717959,1.,0.707106781186548,1.,0.707106781186548,1.,        57P    148
0.707106781186548,1.,0.707106781186548,1.,20.,0.,                     57P    149
11.7903849272929,20.,20.,11.7903849272929,1.22464679914735D-15,       57P    150
20.,11.7903849272929,-20.,20.,11.7903849272929,-20.,                  57P    151
2.44929359829471D-15,11.7903849272929,-20.,-20.,                      57P    152
11.7903849272929,-3.67394039744206D-15,-20.,11.7903849272929,         57P    153
20.,-20.,11.7903849272929,20.,0.,11.7903849272929,0.,                 57P    154
6.28318530717959,0.,0.,0.;                                            57P    155
126,1,1,0,0,1,0,0.,0.,1.,1.,1.,1.,20.,0.,8.32257545491916,20.,        59P    156
0.,11.7903849272929,0.,1.,0.,0.,0.;                                   59P    157
504,4,53,51,1,51,1,55,51,2,51,2,57,51,3,51,3,59,51,1,51,3;            61P    158
128,4,4,2,2,0,0,0,0,0,0.,0.,0.,0.5,0.5,1.,1.,1.,0.,0.,0.,0.5,         63P    159
0.5,1.,1.,1.,1.,0.707106781186548,1.,0.707106781186548,1.,            63P    160
0.707106781186548,0.5,0.707106781186548,0.5,0.707106781186548,        63P    161
1.,0.707106781186548,1.,0.707106781186548,1.,0.707106781186548,       63P    162
0.5,0.707106781186548,0.5,0.707106781186548,1.,                       63P    163
0.707106781186548,1.,0.707106781186548,1.,-48.43,0.,52.43,            63P    164
-48.43,0.,52.43,-48.43,0.,52.43,-48.43,0.,52.43,-48.43,0.,52.43,      63P    165
-48.43,48.4299999999999,52.4299999999999,-48.43,                      63P    166
48.4299999999999,4.00000000000001,-48.43,-2.43772434770561D-14,       63P    167
4.00000000000002,-48.43,-48.43,4.00000000000004,-48.43,-48.43,        63P    168
52.43,-2.96548222413531D-15,48.4299999999999,52.4299999999999,        63P    169
-2.96548222413531D-15,48.4299999999999,4.,-2.96548222413531D-15,      63P    170
-1.72718161194551D-14,4.00000000000001,-2.96548222413531D-15,         63P    171
-48.43,4.00000000000001,-2.96548222413531D-15,-48.43,52.43,           63P    172
48.43,48.4299999999999,52.4299999999999,48.43,48.4299999999999,       63P    173
3.99999999999999,48.43,-2.43772434770561D-14,4.00000000000001,        63P    174
48.43,-48.43,4.00000000000002,48.43,-48.43,52.43,48.43,0.,52.43,      63P    175
48.43,0.,52.43,48.43,0.,52.43,48.43,0.,52.43,48.43,0.,52.43,0.,       63P    176
1.,0.,1.;                                                             63P    177
508,1,0,61,1,1,0;                                                     65P    178
406,1,1;                                                              67P    179
510,63,1,1,65,0,1,67;                                                 69P    180
128,4,4,2,2,0,0,0,0,0,0.,0.,0.,0.5,0.5,1.,1.,1.,0.,0.,0.,0.5,         71P    181
0.5,1.,1.,1.,1.,0.707106781186547,1.,0.707106781186547,1.,            71P    182
0.707106781186548,0.5,0.707106781186548,0.5,0.707106781186548,        71P    183
1.,0.707106781186547,1.,0.707106781186547,1.,0.707106781186548,       71P    184
0.5,0.707106781186548,0.5,0.707106781186548,1.,                       71P    185
0.707106781186547,1.,0.707106781186547,1.,-149.5,0.,160.,-149.5,      71P    186
0.,160.,-149.5,0.,160.,-149.5,0.,160.,-149.5,0.,160.,-149.5,          71P    187
-149.5,160.,-149.5,-149.5,10.5000000000001,-149.5,                    71P    188
-8.56588114793619D-14,10.5,-149.5,149.5,10.4999999999999,-149.5,      71P    189
149.5,160.,-9.15423482362647D-15,-149.5,160.,                         71P    190
-9.15423482362647D-15,-149.5,10.5000000000001,                        71P    191
-9.15423482362647D-15,-8.56588114793619D-14,10.5,                     71P    192
-9.15423482362647D-15,149.5,10.4999999999999,                         71P    193
-9.15423482362647D-15,149.5,160.,149.5,-149.5,160.,149.5,-149.5,      71P    194
10.5000000000001,149.5,-8.56588114793619D-14,10.5,149.5,149.5,        71P    195
10.4999999999999,149.5,149.5,160.,149.5,0.,160.,149.5,0.,160.,        71P    196
149.5,0.,160.,149.5,0.,160.,149.5,0.,160.,0.,1.,0.,1.;                71P    197
508,1,0,61,2,0,0;                                                     73P    198
406,1,2;                                                              75P    199
510,71,1,1,73,0,1,75;                                                 77P    200
128,1,1,1,1,0,0,1,0,0,-20.001,-20.001,20.001,20.001,-20.001,          79P    201
-20.001,20.001,20.001,1.,1.,1.,1.,20.001,-20.001,                     79P    202
11.7903849272929,-20.001,-20.001,11.7903849272929,20.001,20.001,      79P    203
11.7903849272929,-20.001,20.001,11.7903849272929,-20.001,20.001,      79P    204
-20.001,20.001;                                                       79P    205
508,1,0,61,3,0,0;                                                     81P    206
508,1,0,61,2,1,0;                                                     83P    207
406,1,0;                                                              85P    208
510,79,2,1,81,83,0,1,85;                                              87P    209
128,8,1,2,1,1,0,0,0,0,0.,0.,0.,0.25,0.25,0.5,0.5,0.75,0.75,1.,        89P    210
1.,1.,0.,0.,1.,1.,1.,0.707106781186548,1.,0.707106781186548,1.,       89P    211
0.707106781186548,1.,0.707106781186548,1.,1.,0.707106781186548,       89P    212
1.,0.707106781186548,1.,0.707106781186548,1.,0.707106781186548,       89P    213
1.,20.,0.,8.32257545491916,20.,-20.,8.32257545491916,                 89P    214
-4.56211881714218D-15,-20.,8.32257545491916,-20.,-20.,                89P    215
8.32257545491916,-20.,6.00200727709521D-15,8.32257545491916,          89P    216
-20.,20.,8.32257545491916,3.88918205824773D-15,20.,                   89P    217
8.32257545491916,20.,20.,8.32257545491916,20.,0.,                     89P    218
8.32257545491916,20.,0.,11.7903849272929,20.,-20.,                    89P    219
11.7903849272929,-4.56211881714218D-15,-20.,11.7903849272929,         89P    220
-20.,-20.,11.7903849272929,-20.,6.00200727709521D-15,                 89P    221
11.7903849272929,-20.,20.,11.7903849272929,3.88918205824773D-15,      89P    222
20.,11.7903849272929,20.,20.,11.7903849272929,20.,0.,                 89P    223
11.7903849272929,0.,1.,0.,1.;                                         89P    224
508,4,0,61,4,0,0,0,61,1,0,0,0,61,4,1,0,0,61,3,1,0;                    91P    225
406,1,0;                                                              93P    226
510,89,1,1,91,0,1,93;                                                 95P    227
514,4,69,1,77,1,87,1,95,1;                                            97P    228
186,97,0,0;                                                           99P    229
S      1G      4D    100P    229                                        T      1
